# xmcd CD database file
# Copyright (C) 1993-1998 Ti Kan
#
# Track frame offsets:
#	183
#	20470
#	40645
#	55088
#	72418
#	85085
#	101063
#	120403
#	129758
#	143755
#
# Disc length: 2150 seconds
#
# Revision: 0
# Processed by: cddbd v1.4b41PL1 Copyright (c) Steve Scherf et al.
# Submitted via: CDmax 1.5.3
#
DISCID=7908640a
DTITLE=Gary Morris - Plain Brown Wrapper
DYEAR=1900
DGENRE=
TTITLE0=Better Than The New
TTITLE1=Honeycomb
TTITLE2=Today I started Loving You Again
TTITLE3=Leave Me Lonely
TTITLE4=Lovesick Blues
TTITLE5=I'm So Lonesome I Could Cry
TTITLE6=Eleventh Hour
TTITLE7=Moonshine
TTITLE8=Ain't Got Nothin' But The Blues
TTITLE9=Plain Brown Wrapper
EXTD=
EXTT0=
EXTT1=
EXTT2=
EXTT3=
EXTT4=
EXTT5=
EXTT6=
EXTT7=
EXTT8=
EXTT9=
PLAYORDER=
